<mxfile host="app.diagrams.net" modified="2024-07-18T08:39:24.082Z" agent="Mozilla/5.0 (Macintosh; Intel Mac OS X 10.15; rv:109.0) Gecko/20100101 Firefox/115.0" etag="N7sJdpxeFxGUbMV3UgVY" version="24.6.4" type="github">
  <diagram name="Page-1" id="p_uTHfhixjWwxjwrpAC6">
    <mxGraphModel dx="1194" dy="589" grid="0" gridSize="10" guides="1" tooltips="1" connect="1" arrows="1" fold="1" page="0" pageScale="1" pageWidth="850" pageHeight="1100" background="#000000" math="0" shadow="0">
      <root>
        <mxCell id="0" />
        <mxCell id="1" parent="0" />
      </root>
    </mxGraphModel>
  </diagram>
</mxfile>
